<?xml version="1.0" encoding="utf-8"?>
<?xml-stylesheet type="text/xsl" href="rss1.xsl"?>
<rss version="2.0" xmlns:atom="http://www.w3.org/2005/Atom" xmlns:content="http://purl.org/rss/1.0/modules/content/" xmlns:dc="http://purl.org/dc/elements/1.1/" xmlns:media="http://search.yahoo.com/mrss/">
<channel>
 <title>Getty</title>
 <link>http://www.gettyimg.com/</link>
 <atom:link href="http://www.gettyimg.com/" rel="self" type="application/rss+xml" />

 
                <item>
                <title><![CDATA[【Cinema Center】SERIES - My Friends Tigger and Pooh - Season 2 - 1080p Disney+ WEB-DL AAC2.0 H.264-LAZY]]></title>
                <link><![CDATA[https://sharemania.us/threads/my-friends-tigger-and-pooh-season-2-1080p-disney-web-dl-aac2-0-h-264-lazy.240999/]]></link>
                <description><![CDATA[<article>
<blockquote class="messageText SelectQuoteContainer ugc baseHtml">
My Friends Tigger and Pooh:<img src="http:////cdn2.broadcasthe.net/tvdb/banners/graphical/80850-g2.jpg" class="bbCodeImage LbImage" alt="[​IMG]" data-url="http:////cdn2.broadcasthe.net/tvdb/banners/graphical/80850-g2.jpg" style=""><br>
<br>
<div class="bbCodeBlock bbCodeQuote">
<aside>
<blockquote class="quoteContainer"><div class="quote"><i><b>Synopsis:</b></i><br>
"My Friends Tigger &amp; Pooh" is an American computer animated interactive children's television series inspired by Winnie-the-Pooh by A. A. Milne. The television series features Winnie-the-Pooh and his friends, including two new characters: a brave 6-year-old red-headed girl named Darby and her pet dog and sidekick Buster. Although Darby appears to be the main human friend of Pooh and the gang and the leader of the Super Sleuths, Christopher Robin makes several cameos in the series.</div><div class="quoteExpand">Click to expand...</div></blockquote>
</aside>
</div>
<div class="ToggleTriggerAnchor bbCodeSpoilerContainer">
<button type="button" class="button bbCodeSpoilerButton ToggleTrigger Tooltip JsOnly" data-target="> .SpoilerTarget"><span>Spoiler: <span class="SpoilerTitle">MediaInfo</span></span></button>
<div class="SpoilerTarget bbCodeSpoilerText">General<br>
Unique ID : 298773041156512710263390204875145929894 (0xE0C5983B3CDF21B8D3DF1752442EE4A6)<br>
Complete name : My.Friends.Tigger.and.Pooh.S02E01E02.Darby.Goes.Woozle.Sleuthin.-.How.the.Tigger.Lost.His.Stripe.1080p.DSNP.WEB-DL.AAC2.0.H.264-LAZY.mkv<br>
Format : Matroska<br>
Format version : Version 4<br>
File size : 1.45 GiB<br>
Duration : 24 min 1 s<br>
Overall bit rate mode : Variable<br>
Overall bit rate : 8 634 kb/s<br>
Frame rate : 23.976 FPS<br>
Encoded date : 2024-03-26 21:56:01 UTC<br>
Writing application : mkvmerge v83.0 ('Circle Of Friends') 64-bit<br>
Writing library : libebml v1.4.5 + libmatroska v1.7.1<br>
<br>
Video<br>
ID : 1<br>
Format : AVC<br>
Format/Info : Advanced Video Codec<br>
Format profile : High@L4<br>
Format settings : CABAC / 4 Ref Frames<br>
Format settings, CABAC : Yes<br>
Format settings, Reference frames : 4 frames<br>
Codec ID : V_MPEG4/ISO/AVC<br>
Duration : 24 min 1 s<br>
Bit rate mode : Variable<br>
Bit rate : 8 505 kb/s<br>
Maximum bit rate : 12.7 Mb/s<br>
Width : 1 920 pixels<br>
Height : 1 080 pixels<br>
Display aspect ratio : 16:9<br>
Frame rate mode : Constant<br>
Frame rate : 23.976 (24000/1001) FPS<br>
Color space : YUV<br>
Chroma subsampling : 4:2:0<br>
Bit depth : 8 bits<br>
Scan type : Progressive<br>
Bits/(Pixel*Frame) : 0.171<br>
Time code of first frame : 00:00:00;00<br>
Stream size : 1.43 GiB (99%)<br>
Default : Yes<br>
Forced : No<br>
Color range : Limited<br>
Color primaries : BT.709<br>
Transfer characteristics : BT.709<br>
Matrix coefficients : BT.709<br>
<br>
Audio<br>
ID : 2<br>
Format : AAC LC<br>
Format/Info : Advanced Audio Codec Low Complexity<br>
Codec ID : A_AAC-2<br>
Duration : 24 min 1 s<br>
Bit rate : 125 kb/s<br>
Channel(s) : 2 channels<br>
Channel layout : L R<br>
Sampling rate : 48.0 kHz<br>
Frame rate : 46.875 FPS (1024 SPF)<br>
Compression mode : Lossy<br>
Stream size : 21.6 MiB (1%)<br>
Language : English<br>
Default : Yes<br>
Forced : No<br>
<br>
Text #1<br>
ID : 3<br>
Format : UTF-8<br>
Codec ID : S_TEXT/UTF8<br>
Codec ID/Info : UTF-8 Plain Text<br>
Duration : 23 min 53 s<br>
Bit rate : 79 b/s<br>
Frame rate : 0.308 FPS<br>
Count of elements : 442<br>
Stream size : 13.9 KiB (0%)<br>
Title : SDH<br>
Language : English<br>
Default : No<br>
Forced : No<br>
<br>
Text #2<br>
ID : 4<br>
Format : UTF-8<br>
Codec ID : S_TEXT/UTF8<br>
Codec ID/Info : UTF-8 Plain Text<br>
Duration : 23 min 55 s<br>
Bit rate : 66 b/s<br>
Frame rate : 0.231 FPS<br>
Count of elements : 331<br>
Stream size : 11.7 KiB (0%)<br>
Language : Czech<br>
Default : No<br>
Forced : No<br>
<br>
Text #3<br>
ID : 5<br>
Format : UTF-8<br>
Codec ID : S_TEXT/UTF8<br>
Codec ID/Info : UTF-8 Plain Text<br>
Duration : 23 min 55 s<br>
Bit rate : 117 b/s<br>
Frame rate : 0.230 FPS<br>
Count of elements : 330<br>
Stream size : 20.6 KiB (0%)<br>
Language : Greek<br>
Default : No<br>
Forced : No<br>
<br>
Text #4<br>
ID : 6<br>
Format : UTF-8<br>
Codec ID : S_TEXT/UTF8<br>
Codec ID/Info : UTF-8 Plain Text<br>
Duration : 23 min 1 s<br>
Bit rate : 65 b/s<br>
Frame rate : 0.227 FPS<br>
Count of elements : 314<br>
Stream size : 11.0 KiB (0%)<br>
Language : Hungarian<br>
Default : No<br>
Forced : No<br>
<br>
Text #5<br>
ID : 7<br>
Format : UTF-8<br>
Codec ID : S_TEXT/UTF8<br>
Codec ID/Info : UTF-8 Plain Text<br>
Duration : 23 min 1 s<br>
Bit rate : 65 b/s<br>
Frame rate : 0.228 FPS<br>
Count of elements : 315<br>
Stream size : 11.0 KiB (0%)<br>
Language : Polish<br>
Default : No<br>
Forced : No<br>
<br>
Text #6<br>
ID : 8<br>
Format : UTF-8<br>
Codec ID : S_TEXT/UTF8<br>
Codec ID/Info : UTF-8 Plain Text<br>
Duration : 23 min 55 s<br>
Bit rate : 65 b/s<br>
Frame rate : 0.231 FPS<br>
Count of elements : 331<br>
Stream size : 11.5 KiB (0%)<br>
Language : Romanian<br>
Default : No<br>
Forced : No<br>
<br>
Text #7<br>
ID : 9<br>
Format : UTF-8<br>
Codec ID : S_TEXT/UTF8<br>
Codec ID/Info : UTF-8 Plain Text<br>
Duration : 23 min 55 s<br>
Bit rate : 78 b/s<br>
Frame rate : 0.231 FPS<br>
Count of elements : 332<br>
Stream size : 13.8 KiB (0%)<br>
Language : Turkish<br>
Default : No<br>
Forced : No<br>
<br>
Text #8<br>
ID : 10<br>
Format : UTF-8<br>
Codec ID : S_TEXT/UTF8<br>
Codec ID/Info : UTF-8 Plain Text<br>
Duration : 23 min 55 s<br>
Bit rate : 65 b/s<br>
Frame rate : 0.232 FPS<br>
Count of elements : 333<br>
Stream size : 11.5 KiB (0%)<br>
Title : Traditional, Hong Kong<br>
Language : Chinese<br>
Default : No<br>
Forced : No<br>
<br>
Text #9<br>
ID : 11<br>
Format : UTF-8<br>
Codec ID : S_TEXT/UTF8<br>
Codec ID/Info : UTF-8 Plain Text<br>
Duration : 23 min 52 s<br>
Bit rate : 59 b/s<br>
Frame rate : 0.249 FPS<br>
Count of elements : 356<br>
Stream size : 10.4 KiB (0%)<br>
Title : Traditional<br>
Language : Chinese<br>
Default : No<br>
Forced : No<br>
<br>
Menu<br>
00:00:00.040 : en:Intro<br>
00:00:46.120 : en:Scene 1<br>
00:12:25.537 : en:Scene 2<br>
00:23:33.413 : en:Credits</div>
</div><br>
Screenshots:<br>
<img src="https://ptpimg.me/w75203.jpg" class="bbCodeImage LbImage" alt="[​IMG]" data-url="https://ptpimg.me/w75203.jpg" style=""> <br>
<br>
<div class="bbCodeBlock bbCodeVfcHH HiddenContent">
<div class="attribution type">Hidden Content:</div>
<blockquote>You must either reply or click 'Like' to see the hidden information contained here.</blockquote>
</div>
<div class="messageTextEndMarker">&nbsp;</div>
</blockquote>
</article>]]></description>
                <author><![CDATA[LazyRips]]></author>
                </item>

                
                <item>
                <title><![CDATA[【Music Videos】Jon Secada - Otro Dia Mas Sin Verte (Harmony Mix) (VJ-RoGeRs Video Edit) (1080p) (Clean)]]></title>
                <link><![CDATA[https://sharemania.us/threads/jon-secada-otro-dia-mas-sin-verte-harmony-mix-vj-rogers-video-edit-1080p-clean.240998/]]></link>
                <description><![CDATA[<article>
<blockquote class="messageText SelectQuoteContainer ugc baseHtml">
<img src="https://i.ibb.co/PFy2kGK/Jon-Secada-Otro-Dia-Mas-Sin-Verte-Harmony-Mix-VJ-Ro-Ge-Rs-Video-Edit-mp4-thumbs-2024-03-28-23-53-58.jpg" class="bbCodeImage LbImage" alt="[​IMG]" data-url="https://i.ibb.co/PFy2kGK/Jon-Secada-Otro-Dia-Mas-Sin-Verte-Harmony-Mix-VJ-Ro-Ge-Rs-Video-Edit-mp4-thumbs-2024-03-28-23-53-58.jpg" style=""> <br>
<br>
<div class="ToggleTriggerAnchor bbCodeSpoilerContainer">
<button type="button" class="button bbCodeSpoilerButton ToggleTrigger Tooltip JsOnly" data-target="> .SpoilerTarget"><span>Spoiler: <span class="SpoilerTitle">MediaInfo</span></span></button>
<div class="SpoilerTarget bbCodeSpoilerText">Jon Secada - Otro Dia Mas Sin Verte (Harmony Mix) (VJ-RoGeRs Video Edit) (1080p).mp4<br>
Format : MPEG-4<br>
Format profile : Base Media / Version 2<br>
Codec ID : mp42 (mp42/mp41)<br>
File size : 246 MiB<br>
Duration : 5 min 25 s<br>
Overall bit rate mode : Variable<br>
Overall bit rate : 6 331 kb/s<br>
Frame rate : 60.000 FPS<br>
Encoded date : 2023-02-14 07:08:34 UTC<br>
Tagged date : 2023-02-14 07:08:40 UTC<br>
TIM : 00:00:00:00<br>
TSC : 60<br>
TSZ : 1<br>
<br>
Video<br>
ID : 1<br>
Format : AVC<br>
Format/Info : Advanced Video Codec<br>
Format profile : Main@L4.2<br>
Format settings : CABAC / 3 Ref Frames<br>
Format settings, CABAC : Yes<br>
Format settings, Reference : 3 frames<br>
Format settings, GOP : M=4, N=60<br>
Codec ID : avc1<br>
Codec ID/Info : Advanced Video Coding<br>
Duration : 5 min 25 s<br>
Bit rate mode : Variable<br>
Bit rate : 6 007 kb/s<br>
Maximum bit rate : 8 000 kb/s<br>
Width : 1 920 pixels<br>
Height : 1 080 pixels<br>
Display aspect ratio : 16:9<br>
Frame rate mode : Constant<br>
Frame rate : 60.000 FPS<br>
Standard : NTSC<br>
Color space : YUV<br>
Chroma subsampling : 4:2:0<br>
Bit depth : 8 bits<br>
Scan type : Progressive<br>
Bits/(Pixel*Frame) : 0.048<br>
Stream size : 233 MiB (95%)<br>
Language : English<br>
Encoded date : 2023-02-14 07:08:34 UTC<br>
Tagged date : 2023-02-14 07:08:34 UTC<br>
Color range : Limited<br>
Codec configuration box : avcC<br>
<br>
Audio<br>
ID : 2<br>
Format : AAC LC<br>
Format/Info : Advanced Audio Codec Low Complexity<br>
Codec ID : mp4a-40-2<br>
Duration : 5 min 25 s<br>
Source duration : 5 min 25 s<br>
Bit rate mode : Variable<br>
Bit rate : 317 kb/s<br>
Maximum bit rate : 378 kb/s<br>
Channel(s) : 2 channels<br>
Channel layout : L R<br>
Sampling rate : 48.0 kHz<br>
Frame rate : 46.875 FPS (1024 SPF)<br>
Compression mode : Lossy<br>
Stream size : 12.3 MiB (5%)<br>
Source stream size : 12.3 MiB (5%)<br>
Language : English<br>
Encoded date : 2023-02-14 07:08:34 UTC<br>
Tagged date : 2023-02-14 07:08:34 UTC</div>
</div><br>
*Edición trabajada en base a multipistas, con el fin de sentir el tema de manera más armoniosa y escuchar otros sonidos que pasan desapercibidos! **Recomiendo escuchar con audífonos!!!<br>
**Edition worked based on multitracks, in order to feel the song in a more harmonious way and listen to other sounds that go unnoticed! **I recommend listening with headphones!!!<br>
<br>
<div class="bbCodeBlock bbCodeVfcHH HiddenContent">
<div class="attribution type">Hidden Content:</div>
<blockquote>You must reply before you can see the hidden data contained here.</blockquote>
</div>
<div class="messageTextEndMarker">&nbsp;</div>
</blockquote>
</article>]]></description>
                <author><![CDATA[DJ-RoGeRs-BS]]></author>
                </item>

                
                <item>
                <title><![CDATA[【Requests】[REQ VID] - [REQ VID] The Like - June Gloom]]></title>
                <link><![CDATA[https://sharemania.us/threads/req-vid-the-like-june-gloom.241000/]]></link>
                <description><![CDATA[<article>
<blockquote class="messageText SelectQuoteContainer ugc baseHtml">
Hey guys, can someone please download this video?<br>
<br>
<a href="https://www.vip-files.net/hq_videos_musicales/es/dvd/top_hits_usa_video_vh_39_february_2006/Like-video-vob-June-Gloom_98144.html" target="_blank" class="externalLink" rel="nofollow">https://www.vip-files.net/hq_videos...ary_2006/Like-video-vob-June-Gloom_98144.html</a><br>
<br>
Servers:<br>
<br>
<b>Novafile<br>
TezFiles</b>
<div class="messageTextEndMarker">&nbsp;</div>
</blockquote>
</article>]]></description>
                <author><![CDATA[brnmxmff]]></author>
                </item>

                
                <item>
                <title><![CDATA[【HD Live Performances】WEB-RiP - Shakira - Live at TSX, Times Square (Incl. Caloris Intro)]]></title>
                <link><![CDATA[https://sharemania.us/threads/shakira-live-at-tsx-times-square-incl-caloris-intro.240997/]]></link>
                <description><![CDATA[<article>
<blockquote class="messageText SelectQuoteContainer ugc baseHtml">
Downloaded from Shakira's official Facebook<br>
<br>
<span data-s9e-mediaembed="googledrive" style="display:inline-block;width:100%;max-width:640px"><span style="display:block;overflow:hidden;position:relative;padding-bottom:75%"><iframe allowfullscreen="" loading="lazy" scrolling="no" src="//drive.google.com/file/d/1iXdktRc7nGzyN09qv8PfsPAoV30VZ32-/preview" style="border:0;height:100%;left:0;position:absolute;width:100%"></iframe></span></span>
<div class="messageTextEndMarker">&nbsp;</div>
</blockquote>
</article>]]></description>
                <author><![CDATA[nociamfenty]]></author>
                </item>

                </channel></rss>